<?xml version="1.0" encoding="UTF-8"?>
<svg width="32" height="32" viewBox="0 0 32 32" fill="none" xmlns="http://www.w3.org/2000/svg">
  <defs>
    <linearGradient id="skullGradient" x1="0%" y1="0%" x2="100%" y2="100%">
      <stop offset="0%" stop-color="#8B5CF6" />
      <stop offset="50%" stop-color="#F97316" />
      <stop offset="100%" stop-color="#10B981" />
    </linearGradient>
  </defs>
  <!-- Skull shape -->
  <path d="M16 2C10.477 2 6 6.477 6 12C6 14.638 7.062 17.012 8.773 18.726C9.728 19.683 10.4 20.977 10.4 22.4V24.8C10.4 26.24 11.36 27.44 12.64 27.896L14.4 28.508V29.2C14.4 30.08 15.12 30.8 16 30.8C16.88 30.8 17.6 30.08 17.6 29.2V28.508L19.36 27.896C20.64 27.44 21.6 26.24 21.6 24.8V22.4C21.6 20.977 22.273 19.683 23.227 18.726C24.938 17.012 26 14.638 26 12C26 6.477 21.523 2 16 2ZM12 15.2C10.896 15.2 10 14.304 10 13.2C10 12.096 10.896 11.2 12 11.2C13.104 11.2 14 12.096 14 13.2C14 14.304 13.104 15.2 12 15.2ZM16 25.6C15.12 25.6 14.4 24.88 14.4 24C14.4 23.12 15.12 22.4 16 22.4C16.88 22.4 17.6 23.12 17.6 24C17.6 24.88 16.88 25.6 16 25.6ZM20 15.2C18.896 15.2 18 14.304 18 13.2C18 12.096 18.896 11.2 20 11.2C21.104 11.2 22 12.096 22 13.2C22 14.304 21.104 15.2 20 15.2Z" fill="url(#skullGradient)"/>
</svg> 